<?xml version="1.0" encoding="utf-8"?>
<!-- Generator: Adobe Illustrator 22.0.1, SVG Export Plug-In . SVG Version: 6.00 Build 0)  -->
<svg version="1.1" id="Layer_1" xmlns="http://www.w3.org/2000/svg" xmlns:xlink="http://www.w3.org/1999/xlink" x="0px" y="0px"
	 viewBox="0 0 288 157" style="enable-background:new 0 0 288 157;" xml:space="preserve">
<style type="text/css">
	.st0{opacity:5.000000e-02;}
	.st1{fill:#184067;}
</style>
<g id="New_Symbol_6">
</g>
<g class="st0">
	<polygon class="st1" points="139.7,89.1 135.2,86.5 139.7,83.9 	"/>
	<polygon class="st1" points="150.1,86.5 145.7,89.1 145.7,83.9 	"/>
	<polygon class="st1" points="153.1,81.3 148.6,78.8 153.1,76.2 	"/>
	<polygon class="st1" points="150.2,71 145.6,73.7 145.6,68.4 	"/>
	<polygon class="st1" points="139.8,73.8 135,71 139.8,68.3 	"/>
	<polygon class="st1" points="136.9,78.8 132.2,81.5 132.2,76 	"/>
	<polygon class="st1" points="136.9,94.2 132.2,96.9 132.2,91.5 	"/>
	<polygon class="st1" points="153.1,96.9 148.5,94.2 153.1,91.5 	"/>
	<polygon class="st1" points="163.5,78.8 159,81.3 159,76.2 	"/>
	<polygon class="st1" points="153.2,66.1 148.4,63.3 153.2,60.5 	"/>
	<polygon class="st1" points="137,63.3 132.1,66.2 132.1,60.5 	"/>
	<polygon class="st1" points="126.5,81.6 121.6,78.8 126.5,76 	"/>
	<polygon class="st1" points="139.9,104.8 134.9,101.9 139.9,99.1 	"/>
	<polygon class="st1" points="150.3,101.9 145.5,104.7 145.5,99.2 	"/>
	<polygon class="st1" points="163.5,94.2 159,96.8 159,91.6 	"/>
	<polygon class="st1" points="166.5,89.1 161.9,86.5 166.5,83.8 	"/>
	<polygon class="st1" points="166.5,73.7 161.9,71 166.5,68.4 	"/>
	<polygon class="st1" points="163.7,63.3 158.9,66.1 158.9,60.6 	"/>
	<polygon class="st1" points="150.7,55.6 145.3,58.7 145.3,52.5 	"/>
	<polygon class="st1" points="140,58.7 134.6,55.6 140,52.5 	"/>
	<polygon class="st1" points="126.5,66.1 121.6,63.3 126.5,60.5 	"/>
	<polygon class="st1" points="123.6,71 118.8,73.9 118.8,68.2 	"/>
	<polygon class="st1" points="123.6,86.5 118.8,89.3 118.8,83.7 	"/>
	<polygon class="st1" points="126.4,97 121.7,94.2 126.4,91.5 	"/>
	<polygon class="st1" points="126.6,112.6 121.4,109.7 126.6,106.7 	"/>
	<polygon class="st1" points="137.2,109.7 132,112.7 132,106.7 	"/>
	<polygon class="st1" points="153.1,112.4 148.5,109.7 153.1,107 	"/>
	<polygon class="st1" points="163.3,109.7 159.1,112.1 159.1,107.2 	"/>
	<polygon class="st1" points="166.5,104.6 161.9,101.9 166.5,99.3 	"/>
	<polygon class="st1" points="177.1,86.5 172.3,89.3 172.3,83.7 	"/>
	<polygon class="st1" points="179.9,81.5 175.1,78.8 179.9,76 	"/>
	<polygon class="st1" points="177,71 172.3,73.8 172.3,68.3 	"/>
	<polygon class="st1" points="166.6,58.4 161.7,55.6 166.6,52.8 	"/>
	<polygon class="st1" points="163.8,47.9 158.8,50.8 158.8,45 	"/>
	<polygon class="st1" points="153.4,51.1 147.9,47.9 153.4,44.7 	"/>
	<polygon class="st1" points="137.7,47.9 131.8,51.3 131.8,44.5 	"/>
	<polygon class="st1" points="126.7,51.1 121.1,47.9 126.7,44.7 	"/>
	<polygon class="st1" points="123.7,55.6 118.7,58.5 118.7,52.7 	"/>
	<polygon class="st1" points="113.1,73.9 108.2,71 113.1,68.2 	"/>
	<polygon class="st1" points="110.4,78.8 105.3,81.7 105.3,75.8 	"/>
	<polygon class="st1" points="113.1,89.3 108.2,86.5 113.1,83.7 	"/>
	<polygon class="st1" points="123.8,101.9 118.7,104.9 118.7,99 	"/>
	<polygon class="st1" points="123.8,117.4 118.7,120.3 118.7,114.4 	"/>
	<polygon class="st1" points="139.9,120.2 134.9,117.4 139.9,114.5 	"/>
	<polygon class="st1" points="150.1,117.4 145.6,120 145.6,114.8 	"/>
	<polygon class="st1" points="166.2,119.5 162.5,117.4 166.2,115.2 	"/>
	<polygon class="st1" points="176.9,101.9 172.4,104.6 172.4,99.3 	"/>
	<polygon class="st1" points="180,97.1 175,94.2 180,91.4 	"/>
	<polygon class="st1" points="190.7,78.8 185.6,81.7 185.6,75.8 	"/>
	<polygon class="st1" points="179.9,66.1 175.1,63.3 179.9,60.6 	"/>
	<polygon class="st1" points="177,55.6 172.3,58.3 172.3,52.9 	"/>
	<polygon class="st1" points="166.5,42.8 161.9,40.2 166.5,37.5 	"/>
	<polygon class="st1" points="151,40.2 145.2,43.5 145.2,36.8 	"/>
	<polygon class="st1" points="140.2,43.6 134.2,40.2 140.2,36.7 	"/>
	<polygon class="st1" points="124,40.2 118.6,43.3 118.6,37 	"/>
	<polygon class="st1" points="113.1,58.4 108.2,55.6 113.1,52.8 	"/>
	<polygon class="st1" points="110.2,63.3 105.4,66.1 105.4,60.5 	"/>
	<polygon class="st1" points="99.9,81.9 94.4,78.8 99.9,75.6 	"/>
	<polygon class="st1" points="110.2,94.2 105.4,97 105.4,91.4 	"/>
	<polygon class="st1" points="113.1,104.8 108.2,101.9 113.1,99.1 	"/>
	<polygon class="st1" points="126.4,127.9 121.6,125.1 126.4,122.3 	"/>
	<polygon class="st1" points="136.9,125.1 132.2,127.8 132.2,122.4 	"/>
	<polygon class="st1" points="152.9,127.3 149,125.1 152.9,122.9 	"/>
	<polygon class="st1" points="162.6,125.1 159.4,127 159.4,123.3 	"/>
	<polygon class="st1" points="176.3,117.4 172.7,119.5 172.7,115.3 	"/>
	<polygon class="st1" points="179.8,112.1 175.5,109.7 179.8,107.2 	"/>
	<polygon class="st1" points="190.9,94.2 185.4,97.4 185.4,91.1 	"/>
	<polygon class="st1" points="193.6,89.8 187.9,86.5 193.6,83.2 	"/>
	<polygon class="st1" points="193.4,74 188.3,71 193.4,68.1 	"/>
	<polygon class="st1" points="190.5,63.3 185.6,66.1 185.6,60.5 	"/>
	<polygon class="st1" points="179.8,50.4 175.5,47.9 179.8,45.4 	"/>
	<polygon class="st1" points="176.5,40.2 172.6,42.4 172.6,37.9 	"/>
	<polygon class="st1" points="163.2,32.4 159.1,34.8 159.1,30.1 	"/>
	<polygon class="st1" points="153.2,35.3 148.3,32.4 153.2,29.6 	"/>
	<polygon class="st1" points="137.5,32.4 131.9,35.6 131.9,29.2 	"/>
	<polygon class="st1" points="126.6,35.5 121.3,32.4 126.6,29.4 	"/>
	<polygon class="st1" points="113.1,43 108.2,40.2 113.1,37.3 	"/>
	<polygon class="st1" points="110.2,47.9 105.4,50.6 105.4,45.1 	"/>
	<polygon class="st1" points="99.8,66.3 94.7,63.3 99.8,60.4 	"/>
	<polygon class="st1" points="97.4,71 91.7,74.3 91.7,67.8 	"/>
	<polygon class="st1" points="97.3,86.5 91.8,89.7 91.8,83.3 	"/>
	<polygon class="st1" points="99.7,97.1 94.7,94.2 99.7,91.3 	"/>
	<polygon class="st1" points="110.2,109.7 105.4,112.4 105.4,106.9 	"/>
	<polygon class="st1" points="113,120.1 108.3,117.4 113,114.6 	"/>
	<polygon class="st1" points="112.8,135.1 108.9,132.8 112.8,130.6 	"/>
	<polygon class="st1" points="123.2,132.8 119,135.3 119,130.4 	"/>
	<polygon class="st1" points="139.5,135.1 135.5,132.8 139.5,130.5 	"/>
	<polygon class="st1" points="149.4,132.8 146,134.8 146,130.8 	"/>
	<polygon class="st1" points="165.7,134.1 163.5,132.8 165.7,131.5 	"/>
	<polygon class="st1" points="175.2,132.8 173.2,134 173.2,131.7 	"/>
	<polygon class="st1" points="179.3,126.8 176.4,125.1 179.3,123.4 	"/>
	<polygon class="st1" points="190.4,109.7 185.7,112.4 185.7,106.9 	"/>
	<polygon class="st1" points="193.5,105.1 188,101.9 193.5,98.8 	"/>
	<polygon class="st1" points="205,86.5 198.5,90.2 198.5,82.7 	"/>
	<polygon class="st1" points="207.2,82.5 200.8,78.8 207.2,75.1 	"/>
	<polygon class="st1" points="204.5,71 198.7,74.4 198.7,67.7 	"/>
	<polygon class="st1" points="193.2,58.2 188.7,55.6 193.2,53 	"/>
	<polygon class="st1" points="189.9,47.9 185.9,50.2 185.9,45.6 	"/>
	<polygon class="st1" points="179.3,34.1 176.4,32.4 179.3,30.8 	"/>
	<polygon class="st1" points="175.3,24.7 173.2,25.9 173.2,23.5 	"/>
	<polygon class="st1" points="165.8,26.2 163.2,24.7 165.8,23.2 	"/>
	<polygon class="st1" points="149.8,24.7 145.8,27.1 145.8,22.4 	"/>
	<polygon class="st1" points="139.7,27.3 135.2,24.7 139.7,22.1 	"/>
	<polygon class="st1" points="123.3,24.7 118.9,27.3 118.9,22.1 	"/>
	<polygon class="st1" points="112.8,27 108.8,24.7 112.8,22.4 	"/>
	<polygon class="st1" points="109.8,32.4 105.6,34.9 105.6,30 	"/>
	<polygon class="st1" points="99.6,50.5 95.1,47.9 99.6,45.3 	"/>
	<polygon class="st1" points="96.9,55.6 92,58.4 92,52.8 	"/>
	<polygon class="st1" points="86.9,74.8 80.4,71 86.9,67.3 	"/>
	<polygon class="st1" points="85.1,78.8 77.8,82.9 77.8,74.6 	"/>
	<polygon class="st1" points="86.9,90.2 80.4,86.5 86.9,82.8 	"/>
	<polygon class="st1" points="96.9,101.9 92,104.7 92,99.1 	"/>
	<polygon class="st1" points="99.6,112.3 95.1,109.7 99.6,107 	"/>
	<polygon class="st1" points="109.7,125.1 105.6,127.5 105.6,122.7 	"/>
	<polygon class="st1" points="108.9,140.6 106.1,142.2 106.1,138.9 	"/>
	<polygon class="st1" points="125.9,142.4 122.6,140.6 125.9,138.7 	"/>
	<polygon class="st1" points="135.9,140.6 132.7,142.4 132.7,138.7 	"/>
	<polygon class="st1" points="152.3,141.9 150.1,140.6 152.3,139.2 	"/>
	<polygon class="st1" points="161.7,140.6 159.9,141.6 159.9,139.5 	"/>
	<polygon class="st1" points="178.8,141.3 177.4,140.6 178.8,139.8 	"/>
	<polygon class="st1" points="189.4,125.1 186.2,126.9 186.2,123.3 	"/>
	<polygon class="st1" points="193.2,119.9 188.8,117.4 193.2,114.8 	"/>
	<polygon class="st1" points="204.8,101.9 198.6,105.5 198.6,98.4 	"/>
	<polygon class="st1" points="207.4,98.1 200.6,94.2 207.4,90.3 	"/>
	<polygon class="st1" points="218.8,78.8 211.6,82.9 211.6,74.6 	"/>
	<polygon class="st1" points="207,66.6 201.3,63.3 207,60.1 	"/>
	<polygon class="st1" points="203.8,55.6 199,58.4 199,52.9 	"/>
	<polygon class="st1" points="192.7,41.9 189.7,40.2 192.7,38.4 	"/>
	<polygon class="st1" points="188.9,32.4 186.4,33.9 186.4,31 	"/>
	<polygon class="st1" points="178.7,17.5 177.7,17 178.7,16.4 	"/>
	<polygon class="st1" points="161.7,17 159.9,18 159.9,16 	"/>
	<polygon class="st1" points="152.4,18.3 150,17 152.4,15.7 	"/>
	<polygon class="st1" points="135.9,17 132.7,18.9 132.7,15.1 	"/>
	<polygon class="st1" points="125.9,18.9 122.7,17 125.9,15.1 	"/>
	<polygon class="st1" points="108.7,17 106.1,18.5 106.1,15.5 	"/>
	<polygon class="st1" points="99.3,34.5 95.7,32.4 99.3,30.3 	"/>
	<polygon class="st1" points="96.2,40.2 92.3,42.4 92.3,37.9 	"/>
	<polygon class="st1" points="86.5,58.7 81.1,55.6 86.5,52.5 	"/>
	<polygon class="st1" points="84.6,63.3 78.1,67.1 78.1,59.6 	"/>
	<polygon class="st1" points="74.2,83.8 65.5,78.8 74.2,73.7 	"/>
	<polygon class="st1" points="84.5,94.2 78.1,97.9 78.1,90.5 	"/>
	<polygon class="st1" points="86.5,105.1 81.1,101.9 86.5,98.8 	"/>
	<polygon class="st1" points="96.3,117.4 92.3,119.7 92.3,115 	"/>
	<polygon class="st1" points="99.3,127.3 95.6,125.1 99.3,123 	"/>
	<polygon class="st1" points="112.1,149.4 110.1,148.3 112.1,147.1 	"/>
	<polygon class="st1" points="121.8,148.3 119.7,149.5 119.7,147.1 	"/>
	<polygon class="st1" points="138.9,149.4 136.9,148.3 138.9,147.2 	"/>
	<polygon class="st1" points="148.2,148.3 146.6,149.2 146.6,147.4 	"/>
	<polygon class="st1" points="165.3,148.9 164.3,148.3 165.3,147.7 	"/>
	<polygon class="st1" points="174.5,148.3 173.6,148.8 173.6,147.7 	"/>
	<polygon class="st1" points="188.2,140.6 186.8,141.4 186.8,139.7 	"/>
	<polygon class="st1" points="192.5,134.2 190.2,132.8 192.5,131.5 	"/>
	<polygon class="st1" points="203.9,117.4 199,120.2 199,114.5 	"/>
	<polygon class="st1" points="207,113 201.3,109.7 207,106.3 	"/>
	<polygon class="st1" points="218.9,94.2 211.5,98.5 211.5,89.9 	"/>
	<polygon class="st1" points="221.1,91.1 213.1,86.5 221.1,81.9 	"/>
	<polygon class="st1" points="220.9,75.2 213.7,71 220.9,66.9 	"/>
	<polygon class="st1" points="218.1,63.3 212,66.8 212,59.8 	"/>
	<polygon class="st1" points="206.4,50.2 202.4,47.9 206.4,45.6 	"/>
	<polygon class="st1" points="202.6,40.2 199.6,41.9 199.6,38.4 	"/>
	<polygon class="st1" points="192.2,25.5 190.8,24.7 192.2,23.9 	"/>
	<polygon class="st1" points="187.7,17 187,17.4 187,16.6 	"/>
	<polygon class="st1" points="174.2,9.3 173.7,9.5 173.7,9 	"/>
	<polygon class="st1" points="165.2,9.6 164.6,9.3 165.2,8.9 	"/>
	<polygon class="st1" points="148,9.3 146.7,10 146.7,8.5 	"/>
	<polygon class="st1" points="138.8,10.2 137.1,9.3 138.8,8.3 	"/>
	<polygon class="st1" points="121.6,9.3 119.8,10.3 119.8,8.2 	"/>
	<polygon class="st1" points="112,10.2 110.3,9.3 112,8.3 	"/>
	<polygon class="st1" points="98.7,18.1 96.8,17 98.7,15.8 	"/>
	<polygon class="st1" points="95.3,24.7 92.8,26.2 92.8,23.2 	"/>
	<polygon class="st1" points="86,42.4 82.1,40.2 86,37.9 	"/>
	<polygon class="st1" points="83.5,47.9 78.6,50.7 78.6,45.1 	"/>
	<polygon class="st1" points="73.9,67.8 66.2,63.3 73.9,58.9 	"/>
	<polygon class="st1" points="73,71 63.8,76.3 63.8,65.8 	"/>
	<polygon class="st1" points="73.1,86.5 63.8,91.9 63.8,81.1 	"/>
	<polygon class="st1" points="73.9,98.7 66.2,94.2 73.9,89.8 	"/>
	<polygon class="st1" points="83.6,109.7 78.6,112.6 78.6,106.8 	"/>
	<polygon class="st1" points="86.1,119.8 81.9,117.4 86.1,115 	"/>
	<polygon class="st1" points="95.6,132.8 92.6,134.6 92.6,131.1 	"/>
	<polygon class="st1" points="98.9,142 96.4,140.6 98.9,139.1 	"/>
	<polygon class="st1" points="98.4,156.5 97.5,156 98.4,155.5 	"/>
	<polygon class="st1" points="107.7,156 106.7,156.6 106.7,155.4 	"/>
	<polygon class="st1" points="125.2,156.6 124.1,156 125.2,155.3 	"/>
	<polygon class="st1" points="134.5,156 133.4,156.6 133.4,155.3 	"/>
	<polygon class="st1" points="151.9,156.5 151,156 151.9,155.5 	"/>
	<polygon class="st1" points="161,156 160.3,156.4 160.3,155.6 	"/>
	<polygon class="st1" points="178.5,156.3 177.9,156 178.5,155.6 	"/>
	<polygon class="st1" points="187.7,156 187,156.4 187,155.6 	"/>
	<polygon class="st1" points="192.1,148.9 191,148.3 192.1,147.6 	"/>
	<polygon class="st1" points="202.4,132.8 199.8,134.4 199.8,131.3 	"/>
	<polygon class="st1" points="206.4,127.3 202.5,125.1 206.4,122.9 	"/>
	<polygon class="st1" points="218,109.7 212,113.1 212,106.2 	"/>
	<polygon class="st1" points="220.8,106 213.7,101.9 220.8,97.9 	"/>
	<polygon class="st1" points="233.4,86.5 224.4,91.7 224.4,81.3 	"/>
	<polygon class="st1" points="235,84.2 225.6,78.8 235,73.4 	"/>
	<polygon class="st1" points="232.8,71 224.7,75.8 224.7,66.3 	"/>
	<polygon class="st1" points="220.2,58.7 214.9,55.6 220.2,52.5 	"/>
	<polygon class="st1" points="216.7,47.9 212.7,50.2 212.7,45.5 	"/>
	<polygon class="st1" points="205.7,33.6 203.8,32.4 205.7,31.3 	"/>
	<polygon class="st1" points="201.4,24.7 200.3,25.4 200.3,24.1 	"/>
	<polygon class="st1" points="191.8,9.4 191.6,9.3 191.8,9.1 	"/>
	<polygon class="st1" points="187.3,1.5 187.2,1.6 187.2,1.5 	"/>
	<polygon class="st1" points="178.4,1.6 178.3,1.5 178.4,1.5 	"/>
	<polygon class="st1" points="160.6,1.5 160.4,1.7 160.4,1.4 	"/>
	<polygon class="st1" points="151.7,1.8 151.3,1.5 151.7,1.3 	"/>
	<polygon class="st1" points="134.2,1.5 133.5,2 133.5,1.1 	"/>
	<polygon class="st1" points="125.1,2 124.3,1.5 125.1,1.1 	"/>
	<polygon class="st1" points="107.4,1.5 106.8,1.9 106.8,1.2 	"/>
	<polygon class="st1" points="98.2,1.8 97.8,1.5 98.2,1.3 	"/>
	<polygon class="st1" points="94.2,9.3 93.3,9.8 93.3,8.7 	"/>
	<polygon class="st1" points="85.5,26 83.2,24.7 85.5,23.4 	"/>
	<polygon class="st1" points="82.3,32.4 79.2,34.2 79.2,30.7 	"/>
	<polygon class="st1" points="73.1,50.9 67.8,47.9 73.1,44.8 	"/>
	<polygon class="st1" points="71.5,55.6 64.6,59.6 64.6,51.6 	"/>
	<polygon class="st1" points="61.3,76.8 51.3,71 61.3,65.3 	"/>
	<polygon class="st1" points="60.9,78.8 49.8,85.2 49.8,72.3 	"/>
	<polygon class="st1" points="61.6,92.7 50.7,86.5 61.6,80.2 	"/>
	<polygon class="st1" points="71.9,101.9 64.4,106.3 64.4,97.6 	"/>
	<polygon class="st1" points="73.2,112.9 67.6,109.7 73.2,106.4 	"/>
	<polygon class="st1" points="82.5,125.1 79.1,127.1 79.1,123.1 	"/>
	<polygon class="st1" points="85.6,134.4 82.8,132.8 85.6,131.2 	"/>
	<polygon class="st1" points="94.6,148.3 93.1,149.1 93.1,147.4 	"/>
	<polygon class="st1" points="93.9,163.7 93.5,163.9 93.5,163.5 	"/>
	<polygon class="st1" points="111.7,164.1 111.1,163.7 111.7,163.4 	"/>
	<polygon class="st1" points="120.8,163.7 120.2,164.1 120.2,163.4 	"/>
	<polygon class="st1" points="138.4,164.1 137.8,163.7 138.4,163.4 	"/>
	<polygon class="st1" points="147.5,163.7 147,164 147,163.4 	"/>
	<polygon class="st1" points="165.1,164 164.7,163.7 165.1,163.5 	"/>
	<polygon class="st1" points="174.2,163.7 173.7,164 173.7,163.5 	"/>
	<polygon class="st1" points="191.9,164 191.4,163.7 191.9,163.5 	"/>
	<polygon class="st1" points="201.5,148.3 200.2,149 200.2,147.5 	"/>
	<polygon class="st1" points="205.7,141.6 203.9,140.6 205.7,139.5 	"/>
	<polygon class="st1" points="216.4,125.1 212.8,127.2 212.8,123 	"/>
	<polygon class="st1" points="220.1,120.2 215.3,117.4 220.1,114.6 	"/>
	<polygon class="st1" points="232.4,101.9 224.9,106.3 224.9,97.6 	"/>
	<polygon class="st1" points="234.8,99.3 226,94.2 234.8,89.2 	"/>
	<polygon class="st1" points="247.3,78.8 237.5,84.4 237.5,73.1 	"/>
	<polygon class="st1" points="234.3,67.6 226.9,63.3 234.3,59 	"/>
	<polygon class="st1" points="231.2,55.6 225.5,58.9 225.5,52.3 	"/>
	<polygon class="st1" points="219.4,41.7 216.7,40.2 219.4,38.6 	"/>
	<polygon class="st1" points="215.2,32.4 213.4,33.4 213.4,31.4 	"/>
	<polygon class="st1" points="205.3,17.3 204.8,17 205.3,16.7 	"/>
	<polygon class="st1" points="200.7,9.3 200.6,9.4 200.6,9.2 	"/>
	<polygon class="st1" points="165,-6.2 165,-6.2 165,-6.2 	"/>
	<polygon class="st1" points="147.2,-6.2 147.1,-6.1 147.1,-6.2 	"/>
	<polygon class="st1" points="138.3,-6.1 138.1,-6.2 138.3,-6.3 	"/>
	<polygon class="st1" points="120.5,-6.2 120.3,-6 120.3,-6.3 	"/>
	<polygon class="st1" points="111.5,-6 111.3,-6.2 111.5,-6.3 	"/>
	<polygon class="st1" points="93.7,-6.2 93.6,-6.1 93.6,-6.2 	"/>
	<polygon class="st1" points="84.9,9.7 84.2,9.3 84.9,8.9 	"/>
	<polygon class="st1" points="81,17 79.8,17.7 79.8,16.3 	"/>
	<polygon class="st1" points="72.3,34.1 69.4,32.4 72.3,30.8 	"/>
	<polygon class="st1" points="69.5,40.2 65.5,42.5 65.5,37.8 	"/>
	<polygon class="st1" points="60.3,59.7 53.2,55.6 60.3,51.5 	"/>
	<polygon class="st1" points="59.3,63.3 50.6,68.4 50.6,58.3 	"/>
	<polygon class="st1" points="48.3,85.2 37.2,78.8 48.3,72.4 	"/>
	<polygon class="st1" points="60.7,94.2 49.9,100.4 49.9,88 	"/>
	<polygon class="st1" points="61,107.2 51.9,101.9 61,96.7 	"/>
	<polygon class="st1" points="70.3,117.4 65.2,120.3 65.2,114.4 	"/>
	<polygon class="st1" points="72.5,127.1 69,125.1 72.5,123.1 	"/>
	<polygon class="st1" points="81.5,140.6 79.6,141.7 79.6,139.4 	"/>
	<polygon class="st1" points="85.1,149 83.9,148.3 85.1,147.5 	"/>
	<polygon class="st1" points="98.2,171.6 97.9,171.4 98.2,171.3 	"/>
	<polygon class="st1" points="107.2,171.4 106.9,171.6 106.9,171.3 	"/>
	<polygon class="st1" points="124.9,171.6 124.7,171.4 124.9,171.3 	"/>
	<polygon class="st1" points="133.9,171.4 133.7,171.6 133.7,171.3 	"/>
	<polygon class="st1" points="151.7,171.6 151.4,171.4 151.7,171.3 	"/>
	<polygon class="st1" points="160.7,171.4 160.4,171.6 160.4,171.3 	"/>
	<polygon class="st1" points="178.4,171.6 178.1,171.4 178.4,171.3 	"/>
	<polygon class="st1" points="187.4,171.4 187.2,171.6 187.2,171.3 	"/>
	<polygon class="st1" points="201,163.7 200.5,164 200.5,163.4 	"/>
	<polygon class="st1" points="205.4,156.5 204.5,156 205.4,155.5 	"/>
	<polygon class="st1" points="215.1,140.6 213.5,141.5 213.5,139.6 	"/>
	<polygon class="st1" points="219.2,134.1 217,132.8 219.2,131.6 	"/>
	<polygon class="st1" points="230.4,117.4 225.9,120 225.9,114.8 	"/>
	<polygon class="st1" points="233.9,113.2 227.8,109.7 233.9,106.1 	"/>
	<polygon class="st1" points="246.8,94.2 237.7,99.5 237.7,89 	"/>
	<polygon class="st1" points="248.6,92.3 238.5,86.5 248.6,80.7 	"/>
	<polygon class="st1" points="248.2,76.3 239.2,71 248.2,65.8 	"/>
	<polygon class="st1" points="245.9,63.3 238.2,67.8 238.2,58.9 	"/>
	<polygon class="st1" points="233.2,50.3 229.1,47.9 233.2,45.5 	"/>
	<polygon class="st1" points="229.1,40.2 226.5,41.6 226.5,38.7 	"/>
	<polygon class="st1" points="218.7,25.2 217.9,24.7 218.7,24.3 	"/>
	<polygon class="st1" points="214.3,17 213.9,17.2 213.9,16.8 	"/>
	<polygon class="st1" points="205.1,1.6 205.1,1.5 205.1,1.5 	"/>
	<polygon class="st1" points="133.8,-13.9 133.7,-13.9 133.7,-13.9 	"/>
	<polygon class="st1" points="124.8,-13.9 124.8,-13.9 124.8,-13.9 	"/>
	<polygon class="st1" points="107,-13.9 107,-13.9 107,-13.9 	"/>
	<polygon class="st1" points="98.1,-13.9 98.1,-13.9 98.1,-13.9 	"/>
	<polygon class="st1" points="84.7,-6.2 84.7,-6.2 84.7,-6.2 	"/>
	<polygon class="st1" points="80.4,1.5 80.2,1.7 80.2,1.4 	"/>
	<polygon class="st1" points="71.6,17.5 70.7,17 71.6,16.5 	"/>
	<polygon class="st1" points="68,24.7 66.3,25.7 66.3,23.8 	"/>
	<polygon class="st1" points="59.2,42.3 55.5,40.2 59.2,38 	"/>
	<polygon class="st1" points="56.9,47.9 51.8,50.8 51.8,44.9 	"/>
	<polygon class="st1" points="47.3,68.1 39.1,63.3 47.3,58.6 	"/>
	<polygon class="st1" points="46.4,71 37,76.4 37,65.6 	"/>
	<polygon class="st1" points="47.8,86.5 36.3,93.1 36.3,79.9 	"/>
	<polygon class="st1" points="48.4,100.8 37,94.2 48.4,87.6 	"/>
	<polygon class="st1" points="59.1,109.7 50.7,114.5 50.7,104.8 	"/>
	<polygon class="st1" points="60,121 53.8,117.4 60,113.8 	"/>
	<polygon class="st1" points="68.7,132.8 66,134.4 66,131.3 	"/>
	<polygon class="st1" points="71.9,141.5 70.2,140.6 71.9,139.6 	"/>
	<polygon class="st1" points="80.6,156 80.1,156.3 80.1,155.7 	"/>
	<polygon class="st1" points="84.8,163.9 84.5,163.7 84.8,163.6 	"/>
	<polygon class="st1" points="84.7,179.2 84.7,179.2 84.7,179.2 	"/>
	<polygon class="st1" points="93.7,179.2 93.6,179.2 93.6,179.1 	"/>
	<polygon class="st1" points="111.5,179.3 111.4,179.2 111.5,179.1 	"/>
	<polygon class="st1" points="120.5,179.2 120.3,179.2 120.3,179.1 	"/>
	<polygon class="st1" points="138.3,179.2 138.1,179.2 138.3,179.1 	"/>
	<polygon class="st1" points="147.2,179.2 147.1,179.2 147.1,179.1 	"/>
	<polygon class="st1" points="165,179.3 164.8,179.2 165,179 	"/>
	<polygon class="st1" points="174,179.2 173.8,179.3 173.8,179 	"/>
	<polygon class="st1" points="191.8,179.3 191.6,179.2 191.8,179 	"/>
	<polygon class="st1" points="200.8,179.2 200.6,179.3 200.6,179 	"/>
	<polygon class="st1" points="205.2,171.6 204.9,171.4 205.2,171.3 	"/>
	<polygon class="st1" points="214.5,156 213.8,156.4 213.8,155.6 	"/>
	<polygon class="st1" points="218.8,148.8 217.8,148.3 218.8,147.7 	"/>
	<polygon class="st1" points="228.6,132.8 226.8,133.9 226.8,131.8 	"/>
	<polygon class="st1" points="232.8,126.8 229.9,125.1 232.8,123.4 	"/>
	<polygon class="st1" points="244.9,109.7 238.7,113.2 238.7,106.1 	"/>
	<polygon class="st1" points="247.9,106.7 239.8,101.9 247.9,97.2 	"/>
	<polygon class="st1" points="260.9,86.5 250.7,92.4 250.7,80.6 	"/>
	<polygon class="st1" points="261.8,84.3 252.3,78.8 261.8,73.3 	"/>
	<polygon class="st1" points="260.1,71 251.2,76.2 251.2,65.9 	"/>
	<polygon class="st1" points="247.2,59 241.3,55.6 247.2,52.2 	"/>
	<polygon class="st1" points="243.5,47.9 239.4,50.2 239.4,45.5 	"/>
	<polygon class="st1" points="232.3,33.2 231,32.4 232.3,31.7 	"/>
	<polygon class="st1" points="227.8,24.7 227.2,25 227.2,24.4 	"/>
	<polygon class="st1" points="218.5,9.3 218.4,9.3 218.5,9.2 	"/>
	<polygon class="st1" points="214,1.5 214,1.5 214,1.5 	"/>
	<polygon class="st1" points="71.4,1.6 71.3,1.5 71.4,1.5 	"/>
	<polygon class="st1" points="67.1,9.3 66.8,9.4 66.8,9.1 	"/>
	<polygon class="st1" points="58.4,25.5 57.1,24.7 58.4,24 	"/>
	<polygon class="st1" points="54.9,32.4 52.8,33.6 52.8,31.2 	"/>
	<polygon class="st1" points="46,50.4 41.7,47.9 46,45.4 	"/>
	<polygon class="st1" points="43.9,55.6 38.2,58.8 38.2,52.4 	"/>
	<polygon class="st1" points="33.8,75.5 26.1,71 33.8,66.6 	"/>
	<polygon class="st1" points="32.3,78.8 24,83.5 24,74 	"/>
	<polygon class="st1" points="34.7,92.6 24.2,86.5 34.7,80.4 	"/>
	<polygon class="st1" points="47.4,101.9 36.5,108.3 36.5,95.6 	"/>
	<polygon class="st1" points="47.7,115.1 38.3,109.7 47.7,104.3 	"/>
	<polygon class="st1" points="56.8,125.1 51.8,128 51.8,122.2 	"/>
	<polygon class="st1" points="59,134.6 55.9,132.8 59,131 	"/>
	<polygon class="st1" points="67.4,148.3 66.6,148.8 66.6,147.8 	"/>
	<polygon class="st1" points="71.4,156.2 71.1,156 71.4,155.8 	"/>
	<polygon class="st1" points="80.3,171.4 80.2,171.5 80.2,171.4 	"/>
	<polygon class="st1" points="98.1,186.9 98.1,186.9 98.1,186.9 	"/>
	<polygon class="st1" points="107,186.9 107,186.9 107,186.9 	"/>
	<polygon class="st1" points="124.9,186.9 124.8,186.9 124.9,186.9 	"/>
	<polygon class="st1" points="133.8,186.9 133.7,186.9 133.7,186.9 	"/>
	<polygon class="st1" points="151.6,186.9 151.5,186.9 151.6,186.8 	"/>
	<polygon class="st1" points="160.6,186.9 160.5,187 160.5,186.8 	"/>
	<polygon class="st1" points="178.4,187 178.3,186.9 178.4,186.8 	"/>
	<polygon class="st1" points="187.3,186.9 187.2,187 187.2,186.8 	"/>
	<polygon class="st1" points="205.1,187 205,186.9 205.1,186.8 	"/>
	<polygon class="st1" points="214.2,171.4 213.9,171.6 213.9,171.3 	"/>
	<polygon class="st1" points="218.6,163.9 218.2,163.7 218.6,163.5 	"/>
	<polygon class="st1" points="227.8,148.3 227.2,148.7 227.2,147.9 	"/>
	<polygon class="st1" points="232.2,141.1 231.2,140.6 232.2,140 	"/>
	<polygon class="st1" points="242.6,125.1 239.8,126.7 239.8,123.5 	"/>
	<polygon class="st1" points="246.8,120.1 242.1,117.4 246.8,114.7 	"/>
	<polygon class="st1" points="260.1,101.9 251.2,107.1 251.2,96.8 	"/>
	<polygon class="st1" points="261.9,99.9 252,94.2 261.9,88.5 	"/>
	<polygon class="st1" points="273.2,78.8 264.7,83.7 264.7,73.9 	"/>
	<polygon class="st1" points="261.1,67.6 253.6,63.3 261.1,59 	"/>
	<polygon class="st1" points="258.1,55.6 252.2,59 252.2,52.2 	"/>
	<polygon class="st1" points="246,41.5 243.6,40.2 246,38.8 	"/>
	<polygon class="st1" points="241.5,32.4 240.4,33.1 240.4,31.8 	"/>
	<polygon class="st1" points="231.9,17.1 231.8,17 231.9,16.9 	"/>
	<polygon class="st1" points="227.4,9.3 227.4,9.3 227.4,9.3 	"/>
	<polygon class="st1" points="66.9,-6.2 66.9,-6.2 66.9,-6.2 	"/>
	<polygon class="st1" points="58,9.4 57.8,9.3 58,9.2 	"/>
	<polygon class="st1" points="53.8,17 53.3,17.3 53.3,16.7 	"/>
	<polygon class="st1" points="45.1,33.3 43.6,32.4 45.1,31.5 	"/>
	<polygon class="st1" points="41.6,40.2 39.4,41.4 39.4,38.9 	"/>
	<polygon class="st1" points="32.6,58 28.5,55.6 32.6,53.2 	"/>
	<polygon class="st1" points="30,63.3 25.1,66.1 25.1,60.5 	"/>
	<polygon class="st1" points="19.9,82.4 13.6,78.8 19.9,75.1 	"/>
	<polygon class="st1" points="33.8,94.2 23.2,100.3 23.2,88.1 	"/>
	<polygon class="st1" points="34.9,108.3 23.8,101.9 34.9,95.5 	"/>
	<polygon class="st1" points="45.5,117.4 37.4,122.1 37.4,112.7 	"/>
	<polygon class="st1" points="46.5,128.4 40.8,125.1 46.5,121.8 	"/>
	<polygon class="st1" points="54.8,140.6 52.9,141.7 52.9,139.4 	"/>
	<polygon class="st1" points="58.2,148.8 57.4,148.3 58.2,147.8 	"/>
	<polygon class="st1" points="66.9,163.7 66.9,163.7 66.9,163.7 	"/>
	<polygon class="st1" points="71.3,171.4 71.3,171.4 71.3,171.4 	"/>
	<polygon class="st1" points="111.5,194.6 111.4,194.6 111.5,194.6 	"/>
	<polygon class="st1" points="120.4,194.6 120.4,194.6 120.4,194.6 	"/>
	<polygon class="st1" points="138.2,194.6 138.2,194.6 138.2,194.6 	"/>
	<polygon class="st1" points="147.2,194.6 147.1,194.6 147.1,194.6 	"/>
	<polygon class="st1" points="165,194.7 164.9,194.6 165,194.6 	"/>
	<polygon class="st1" points="173.9,194.6 173.9,194.7 173.9,194.6 	"/>
	<polygon class="st1" points="191.7,194.6 191.7,194.6 191.7,194.6 	"/>
	<polygon class="st1" points="200.7,194.6 200.6,194.6 200.6,194.6 	"/>
	<polygon class="st1" points="214.1,186.9 214,187 214,186.8 	"/>
	<polygon class="st1" points="218.5,179.3 218.4,179.2 218.5,179.1 	"/>
	<polygon class="st1" points="227.6,163.7 227.3,163.9 227.3,163.6 	"/>
	<polygon class="st1" points="232,156.2 231.6,156 232,155.8 	"/>
	<polygon class="st1" points="241.3,140.6 240.5,141 240.5,140.1 	"/>
	<polygon class="st1" points="245.7,133.7 244.2,132.8 245.7,131.9 	"/>
	<polygon class="st1" points="257.8,117.4 252.3,120.6 252.3,114.2 	"/>
	<polygon class="st1" points="261.2,114.2 253.4,109.7 261.2,105.1 	"/>
	<polygon class="st1" points="273.9,94.2 264.3,99.7 264.3,88.7 	"/>
	<polygon class="st1" points="274.8,91.4 266.3,86.5 274.8,81.6 	"/>
	<polygon class="st1" points="274.4,75.2 267.1,71 274.4,66.9 	"/>
	<polygon class="st1" points="272.2,63.3 265.2,67.4 265.2,59.2 	"/>
	<polygon class="st1" points="260.1,50.4 255.7,47.9 260.1,45.3 	"/>
	<polygon class="st1" points="255.8,40.2 253.3,41.6 253.3,38.7 	"/>
	<polygon class="st1" points="245.4,25 244.9,24.7 245.4,24.5 	"/>
	<polygon class="st1" points="240.8,17 240.7,17 240.7,16.9 	"/>
	<polygon class="st1" points="58,-6.2 58,-6.2 58,-6.2 	"/>
	<polygon class="st1" points="53.5,1.5 53.5,1.6 53.5,1.5 	"/>
	<polygon class="st1" points="44.7,17.2 44.4,17 44.7,16.8 	"/>
	<polygon class="st1" points="40.5,24.7 39.9,25 39.9,24.4 	"/>
	<polygon class="st1" points="31.7,40.9 30.3,40.2 31.7,39.4 	"/>
	<polygon class="st1" points="28,47.9 26.1,49 26.1,46.8 	"/>
	<polygon class="st1" points="18.9,65.2 15.7,63.3 18.9,61.5 	"/>
	<polygon class="st1" points="15.9,71 12.1,73.3 12.1,68.8 	"/>
	<polygon class="st1" points="18.1,86.5 11,90.6 11,82.4 	"/>
	<polygon class="st1" points="20.9,99.5 11.8,94.2 20.9,89 	"/>
	<polygon class="st1" points="33.5,109.7 23.4,115.5 23.4,103.8 	"/>
	<polygon class="st1" points="34.1,122.4 25.5,117.4 34.1,112.4 	"/>
	<polygon class="st1" points="42.8,132.8 38.8,135.1 38.8,130.5 	"/>
	<polygon class="st1" points="45.3,141.7 43.2,140.6 45.3,139.4 	"/>
	<polygon class="st1" points="53.6,156 53.4,156.1 53.4,155.9 	"/>
	<polygon class="st1" points="58,163.7 57.9,163.7 58,163.7 	"/>
	<polygon class="st1" points="107,202.3 107,202.3 107,202.3 	"/>
	<polygon class="st1" points="124.8,202.3 124.8,202.3 124.8,202.3 	"/>
	<polygon class="st1" points="133.8,202.3 133.7,202.3 133.7,202.3 	"/>
	<polygon class="st1" points="151.6,202.3 151.6,202.3 151.6,202.3 	"/>
	<polygon class="st1" points="160.5,202.3 160.5,202.4 160.5,202.3 	"/>
	<polygon class="st1" points="178.4,202.4 178.3,202.3 178.4,202.3 	"/>
	<polygon class="st1" points="187.3,202.3 187.2,202.4 187.2,202.3 	"/>
	<polygon class="st1" points="205.1,202.4 205,202.3 205.1,202.3 	"/>
	<polygon class="st1" points="214.1,202.3 214,202.4 214,202.3 	"/>
	<polygon class="st1" points="218.5,194.7 218.4,194.6 218.5,194.6 	"/>
	<polygon class="st1" points="227.5,179.2 227.3,179.3 227.3,179.1 	"/>
	<polygon class="st1" points="231.9,171.5 231.7,171.4 231.9,171.4 	"/>
	<polygon class="st1" points="240.9,156 240.7,156.1 240.7,155.9 	"/>
	<polygon class="st1" points="245.3,148.5 245,148.3 245.3,148.1 	"/>
	<polygon class="st1" points="255.4,132.8 253.5,134 253.5,131.7 	"/>
	<polygon class="st1" points="259.9,127.4 255.9,125.1 259.9,122.8 	"/>
	<polygon class="st1" points="273.1,109.7 264.7,114.5 264.7,104.8 	"/>
	<polygon class="st1" points="275.1,107.3 265.8,101.9 275.1,96.6 	"/>
	<polygon class="st1" points="285.8,86.5 278.4,90.8 278.4,82.2 	"/>
	<polygon class="st1" points="287.4,82.3 281.2,78.8 287.4,75.2 	"/>
	<polygon class="st1" points="285.2,71 278.7,74.8 278.7,67.3 	"/>
	<polygon class="st1" points="274,59.2 267.8,55.6 274,52 	"/>
	<polygon class="st1" points="270.8,47.9 265.9,50.7 265.9,45 	"/>
	<polygon class="st1" points="259.1,33.4 257.5,32.4 259.1,31.5 	"/>
	<polygon class="st1" points="254.5,24.7 253.9,25 253.9,24.4 	"/>
	<polygon class="st1" points="245.2,9.3 245.2,9.3 245.2,9.3 	"/>
	<polygon class="st1" points="44.6,1.6 44.6,1.5 44.6,1.5 	"/>
	<polygon class="st1" points="40.2,9.3 40.1,9.3 40.1,9.2 	"/>
	<polygon class="st1" points="31.3,24.9 31,24.7 31.3,24.6 	"/>
	<polygon class="st1" points="27,32.4 26.6,32.7 26.6,32.2 	"/>
	<polygon class="st1" points="18.2,48.5 17.2,47.9 18.2,47.3 	"/>
	<polygon class="st1" points="14.3,55.6 12.9,56.4 12.9,54.8 	"/>
	<polygon class="st1" points="5.3,72.5 2.8,71 5.3,69.6 	"/>
	<polygon class="st1" points="2.3,78.8 -1.1,80.7 -1.1,76.8 	"/>
	<polygon class="st1" points="6.4,89.8 0.7,86.5 6.4,83.2 	"/>
	<polygon class="st1" points="19.3,101.9 10.4,107.1 10.4,96.8 	"/>
	<polygon class="st1" points="20.9,114.9 11.7,109.7 20.9,104.4 	"/>
	<polygon class="st1" points="31.1,125.1 24.6,128.8 24.6,121.4 	"/>
	<polygon class="st1" points="32.6,135.3 28.4,132.8 32.6,130.4 	"/>
	<polygon class="st1" points="40.7,148.3 39.8,148.8 39.8,147.8 	"/>
	<polygon class="st1" points="44.6,156.1 44.4,156 44.6,155.9 	"/>
	<polygon class="st1" points="120.4,210.1 120.4,210.1 120.4,210.1 	"/>
	<polygon class="st1" points="138.2,210.1 138.2,210.1 138.2,210.1 	"/>
	<polygon class="st1" points="147.1,210.1 147.1,210.1 147.1,210.1 	"/>
	<polygon class="st1" points="165,210.1 164.9,210.1 165,210 	"/>
	<polygon class="st1" points="173.9,210.1 173.9,210.1 173.9,210 	"/>
	<polygon class="st1" points="191.7,210.1 191.7,210.1 191.7,210 	"/>
	<polygon class="st1" points="200.7,210.1 200.6,210.1 200.6,210 	"/>
	<polygon class="st1" points="218.5,210.1 218.4,210.1 218.5,210 	"/>
	<polygon class="st1" points="227.5,194.6 227.3,194.7 227.3,194.5 	"/>
	<polygon class="st1" points="231.9,187 231.8,186.9 231.9,186.8 	"/>
	<polygon class="st1" points="240.8,171.4 240.7,171.5 240.7,171.4 	"/>
	<polygon class="st1" points="245.2,163.8 245.2,163.7 245.2,163.7 	"/>
	<polygon class="st1" points="254.4,148.3 254,148.5 254,148.1 	"/>
	<polygon class="st1" points="259,141.2 257.9,140.6 259,139.9 	"/>
	<polygon class="st1" points="270.7,125.1 265.9,127.9 265.9,122.3 	"/>
	<polygon class="st1" points="274.4,121.5 267.2,117.4 274.4,113.3 	"/>
	<polygon class="st1" points="286.8,101.9 277.9,107 277.9,96.8 	"/>
	<polygon class="st1" points="288,98.7 280.1,94.2 288,89.7 	"/>
	<polygon class="st1" points="287.6,67.2 280.9,63.3 287.6,59.5 	"/>
	<polygon class="st1" points="285.4,55.6 278.6,59.5 278.6,51.7 	"/>
	<polygon class="st1" points="273.4,42.6 269.1,40.2 273.4,37.7 	"/>
	<polygon class="st1" points="269.1,32.4 266.7,33.9 266.7,31 	"/>
	<polygon class="st1" points="258.7,17.2 258.4,17 258.7,16.8 	"/>
	<polygon class="st1" points="254.1,9.3 254.1,9.3 254.1,9.3 	"/>
	<polygon class="st1" points="31.2,9.3 31.2,9.3 31.2,9.3 	"/>
	<polygon class="st1" points="26.8,17 26.7,17 26.7,17 	"/>
	<polygon class="st1" points="17.9,32.5 17.7,32.4 17.9,32.3 	"/>
	<polygon class="st1" points="13.6,40.2 13.3,40.3 13.3,40 	"/>
	<polygon class="st1" points="4.7,56 4,55.6 4.7,55.2 	"/>
	<polygon class="st1" points="0.7,63.3 -0.4,63.9 -0.4,62.7 	"/>
	<polygon class="st1" points="4.3,94.2 -2.2,98 -2.2,90.5 	"/>
	<polygon class="st1" points="7,106.4 -0.7,101.9 7,97.5 	"/>
	<polygon class="st1" points="18.2,117.4 11,121.5 11,113.2 	"/>
	<polygon class="st1" points="19.8,128.5 14,125.1 19.8,121.8 	"/>
	<polygon class="st1" points="28.2,140.6 26,141.8 26,139.3 	"/>
	<polygon class="st1" points="31.5,148.8 30.6,148.3 31.5,147.8 	"/>
	<polygon class="st1" points="40.1,163.7 40.1,163.7 40.1,163.7 	"/>
	<polygon class="st1" points="151.6,217.8 151.6,217.8 151.6,217.8 	"/>
	<polygon class="st1" points="160.5,217.8 160.5,217.8 160.5,217.8 	"/>
	<polygon class="st1" points="178.3,217.8 178.3,217.8 178.3,217.8 	"/>
	<polygon class="st1" points="187.3,217.8 187.2,217.8 187.2,217.8 	"/>
	<polygon class="st1" points="205.1,217.8 205,217.8 205.1,217.7 	"/>
	<polygon class="st1" points="214.1,217.8 214,217.8 214,217.7 	"/>
	<polygon class="st1" points="227.5,210.1 227.3,210.1 227.3,210 	"/>
	<polygon class="st1" points="231.9,202.4 231.8,202.3 231.9,202.3 	"/>
	<polygon class="st1" points="240.8,186.9 240.7,187 240.7,186.8 	"/>
	<polygon class="st1" points="245.2,179.2 245.2,179.2 245.2,179.1 	"/>
	<polygon class="st1" points="254.2,163.7 254.1,163.8 254.1,163.7 	"/>
	<polygon class="st1" points="258.7,156.1 258.5,156 258.7,155.9 	"/>
	<polygon class="st1" points="268.4,140.6 267,141.4 267,139.8 	"/>
	<polygon class="st1" points="273,134.6 269.9,132.8 273,131.1 	"/>
	<polygon class="st1" points="285.8,117.4 278.4,121.7 278.4,113.1 	"/>
	<polygon class="st1" points="288.1,114.5 279.8,109.7 288.1,104.9 	"/>
	<polygon class="st1" points="287.7,52 280.6,47.9 287.7,43.7 	"/>
	<polygon class="st1" points="284.8,40.2 278.9,43.5 278.9,36.8 	"/>
	<polygon class="st1" points="272.6,25.8 270.7,24.7 272.6,23.6 	"/>
	<polygon class="st1" points="268,17 267.3,17.4 267.3,16.6 	"/>
	<polygon class="st1" points="17.8,17 17.8,17 17.8,17 	"/>
	<polygon class="st1" points="13.4,24.7 13.4,24.7 13.4,24.7 	"/>
	<polygon class="st1" points="4.5,40.2 4.4,40.2 4.5,40.1 	"/>
	<polygon class="st1" points="0.1,47.9 0,48 0,47.8 	"/>
	<polygon class="st1" points="4.2,109.7 -2.1,113.3 -2.1,106 	"/>
	<polygon class="st1" points="6.4,120.7 0.6,117.4 6.4,114 	"/>
	<polygon class="st1" points="15.5,132.8 12.3,134.7 12.3,131 	"/>
	<polygon class="st1" points="18.4,141.6 16.6,140.6 18.4,139.5 	"/>
	<polygon class="st1" points="26.9,156 26.7,156.1 26.7,155.9 	"/>
	<polygon class="st1" points="31.2,163.7 31.2,163.7 31.2,163.7 	"/>
	<polygon class="st1" points="147.1,225.5 147.1,225.5 147.1,225.5 	"/>
	<polygon class="st1" points="165,225.5 165,225.5 165,225.5 	"/>
	<polygon class="st1" points="173.9,225.5 173.9,225.5 173.9,225.5 	"/>
	<polygon class="st1" points="191.7,225.5 191.7,225.5 191.7,225.5 	"/>
	<polygon class="st1" points="200.7,225.5 200.6,225.6 200.6,225.4 	"/>
	<polygon class="st1" points="218.5,225.6 218.4,225.5 218.5,225.4 	"/>
	<polygon class="st1" points="227.5,225.5 227.3,225.6 227.3,225.4 	"/>
	<polygon class="st1" points="231.9,217.9 231.7,217.8 231.9,217.7 	"/>
	<polygon class="st1" points="240.9,202.3 240.7,202.4 240.7,202.3 	"/>
	<polygon class="st1" points="245.3,194.7 245.1,194.6 245.3,194.5 	"/>
	<polygon class="st1" points="254.2,179.2 254.1,179.2 254.1,179.1 	"/>
	<polygon class="st1" points="258.6,171.5 258.5,171.4 258.6,171.4 	"/>
	<polygon class="st1" points="267.7,156 267.4,156.1 267.4,155.9 	"/>
	<polygon class="st1" points="272.2,148.7 271.5,148.3 272.2,147.9 	"/>
	<polygon class="st1" points="283.1,132.8 279.8,134.8 279.8,130.9 	"/>
	<polygon class="st1" points="287.2,128.3 281.7,125.1 287.2,121.9 	"/>
	<polygon class="st1" points="287.2,35.6 281.6,32.4 287.2,29.2 	"/>
	<polygon class="st1" points="283,24.7 279.8,26.6 279.8,22.9 	"/>
	<polygon class="st1" points="272.1,9.5 271.7,9.3 272.1,9.1 	"/>
	<polygon class="st1" points="267.5,1.5 267.5,1.6 267.5,1.5 	"/>
	<polygon class="st1" points="0,32.4 0,32.4 0,32.4 	"/>
	<polygon class="st1" points="2.2,125.1 -1.1,127 -1.1,123.2 	"/>
	<polygon class="st1" points="5.2,134.1 3,132.8 5.2,131.5 	"/>
	<polygon class="st1" points="13.7,148.3 13.2,148.6 13.2,148 	"/>
	<polygon class="st1" points="17.9,156.1 17.7,156 17.9,155.9 	"/>
	<polygon class="st1" points="240.9,217.8 240.7,217.9 240.7,217.7 	"/>
	<polygon class="st1" points="245.3,210.2 245.1,210.1 245.3,210 	"/>
	<polygon class="st1" points="254.2,194.6 254.1,194.7 254.1,194.5 	"/>
	<polygon class="st1" points="258.6,187 258.5,186.9 258.6,186.8 	"/>
	<polygon class="st1" points="267.6,171.4 267.5,171.5 267.5,171.4 	"/>
	<polygon class="st1" points="272,163.8 271.9,163.7 272,163.6 	"/>
	<polygon class="st1" points="281.4,148.3 280.6,148.7 280.6,147.8 	"/>
	<polygon class="st1" points="285.9,141.5 284.2,140.6 285.9,139.6 	"/>
	<polygon class="st1" points="286.1,18.3 283.8,17 286.1,15.7 	"/>
	<polygon class="st1" points="281.4,9.3 280.6,9.7 280.6,8.8 	"/>
	<path class="st1" d="M272-6.2L272-6.2L272-6.2z"/>
	<polygon class="st1" points="0.4,140.6 -0.2,140.9 -0.2,140.2 	"/>
	<polygon class="st1" points="4.5,148.4 4.3,148.3 4.5,148.1 	"/>
	<polygon class="st1" points="245.3,225.6 245.1,225.5 245.3,225.4 	"/>
	<polygon class="st1" points="254.3,210.1 254.1,210.2 254.1,209.9 	"/>
	<polygon class="st1" points="258.7,202.4 258.5,202.3 258.7,202.2 	"/>
	<polygon class="st1" points="267.6,186.9 267.5,187 267.5,186.8 	"/>
	<polygon class="st1" points="272,179.2 271.9,179.2 272,179.1 	"/>
	<polygon class="st1" points="281,163.7 280.8,163.8 280.8,163.6 	"/>
	<polygon class="st1" points="285.5,156.2 285.1,156 285.5,155.8 	"/>
	<polygon class="st1" points="285.5,1.7 285.1,1.5 285.5,1.3 	"/>
	<polygon class="st1" points="280.9,-6.2 280.9,-6.2 280.9,-6.2 	"/>
	<polygon class="st1" points="0,156 0,156 0,156 	"/>
	<polygon class="st1" points="254.3,225.5 254.1,225.6 254.1,225.4 	"/>
	<polygon class="st1" points="258.7,217.9 258.4,217.8 258.7,217.6 	"/>
	<polygon class="st1" points="267.6,202.3 267.4,202.5 267.4,202.2 	"/>
	<polygon class="st1" points="272,194.7 271.9,194.6 272,194.5 	"/>
	<polygon class="st1" points="281,179.2 280.8,179.2 280.8,179.1 	"/>
	<polygon class="st1" points="285.4,171.5 285.3,171.4 285.4,171.4 	"/>
	<polygon class="st1" points="267.7,217.8 267.4,217.9 267.4,217.6 	"/>
	<polygon class="st1" points="272,210.2 271.8,210.1 272,209.9 	"/>
	<polygon class="st1" points="281,194.6 280.8,194.7 280.8,194.5 	"/>
	<polygon class="st1" points="285.4,187 285.2,186.9 285.4,186.8 	"/>
	<polygon class="st1" points="272.1,225.7 271.8,225.5 272.1,225.3 	"/>
	<polygon class="st1" points="281,210.1 280.8,210.2 280.8,209.9 	"/>
	<polygon class="st1" points="285.4,202.5 285.2,202.3 285.4,202.2 	"/>
	<polygon class="st1" points="13.4,-68 13.4,-68 13.4,-68 	"/>
	<path class="st1" d="M4.5-52.5L4.5-52.5L4.5-52.5z"/>
	<polygon class="st1" points="281.1,225.5 280.8,225.7 280.8,225.3 	"/>
	<polygon class="st1" points="285.4,217.9 285.2,217.8 285.4,217.6 	"/>
	<polygon class="st1" points="4.5,-68 4.4,-68 4.5,-68 	"/>
	<polygon class="st1" points="0,-60.2 0,-60.2 0,-60.2 	"/>
</g>
</svg>
